<svg xmlns="http://www.w3.org/2000/svg" width="300" height="220" viewBox="0 0 300 220">
  <style>
    .dark-element { fill: #323338; }
    .light-element { fill: #f5f6f8; }
    .primary-element { fill: #1976d2; }
    .accent-element { fill: #e2445c; }
    .background-element { fill: #ffffff; }
    
    @media (prefers-color-scheme: dark) {
      .dark-element { fill: #e0e0e0; }
      .light-element { fill: #2c2c2c; }
      .background-element { fill: #1e1e1e; }
    }
  </style>
  
  <!-- Background shape -->
  <rect class="background-element" x="30" y="20" width="240" height="160" rx="12" />
  
  <!-- Document icon -->
  <path class="light-element" d="M120,50 h60 a8,8 0 0 1 8,8 v104 a8,8 0 0 1 -8,8 h-80 a8,8 0 0 1 -8,-8 v-84 z" />
  <path class="dark-element" d="M120,50 v20 a8,8 0 0 0 8,8 h20" fill-opacity="0.1" />
  
  <!-- Error symbol -->
  <circle class="accent-element" cx="200" cy="70" r="25" />
  <path class="background-element" d="M190,60 l20,20 m0,-20 l-20,20" stroke="#ffffff" stroke-width="5" stroke-linecap="round" />
  
  <!-- Magnifying glass -->
  <circle class="primary-element" cx="100" cy="140" r="20" fill-opacity="0.8" />
  <path class="primary-element" d="M115,155 l15,15" stroke="#1976d2" stroke-width="6" stroke-linecap="round" />
  <circle class="background-element" cx="100" cy="140" r="10" />
  
  <!-- Text lines -->
  <rect class="dark-element" x="150" y="120" width="60" height="6" rx="3" fill-opacity="0.7" />
  <rect class="dark-element" x="150" y="135" width="80" height="6" rx="3" fill-opacity="0.7" />
  <rect class="dark-element" x="150" y="150" width="70" height="6" rx="3" fill-opacity="0.7" />
</svg> 